<svg width="18" height="18" viewBox="0 0 18 18" fill="none" xmlns="http://www.w3.org/2000/svg">
<path fill-rule="evenodd" clip-rule="evenodd" d="M1.81062 0.969666L0.749955 2.03033L1.82918 3.10955C0.98266 4.0611 0.482422 5.36685 0.482422 6.83991C0.482422 9.12535 1.79912 11.3279 4.24969 13.4561C5.53458 14.5719 7.17502 15.6761 8.34875 16.2629L8.99996 16.5885L9.65116 16.2629C10.5739 15.8016 11.785 15.0205 12.8851 14.1654L15.75 17.0303L16.8106 15.9697L1.81062 0.969666ZM11.8155 13.0959L2.89243 4.1728C2.31935 4.84833 1.98242 5.77431 1.98242 6.83991C1.98242 8.61789 3.0796 10.4533 5.23322 12.3235C6.41687 13.3514 7.94097 14.3787 8.99996 14.9114C9.7909 14.5135 10.8413 13.8398 11.8155 13.0959ZM16.0175 6.83991C16.0175 8.22654 15.3502 9.64808 14.0348 11.0939L15.0965 12.1556C16.6796 10.4336 17.5175 8.6631 17.5175 6.83991C17.5175 3.84977 15.3922 1.51143 12.5365 1.50001C11.4192 1.5 10.7017 1.62804 9.87746 2.0176C9.56194 2.16672 9.26636 2.34744 8.99241 2.55928C8.72861 2.35901 8.44435 2.1863 8.14131 2.04158C7.30084 1.6402 6.54625 1.5 5.46926 1.5C5.14465 1.5 4.8299 1.52942 4.52689 1.58594L5.95367 3.01273C6.55668 3.04774 7.0004 3.159 7.4949 3.39515C7.85938 3.56921 8.18103 3.7987 8.45881 4.08483L9.00153 4.64384L9.53947 4.08023C9.82346 3.78268 10.1499 3.54795 10.5184 3.37377C11.1185 3.09018 11.6238 3 12.5335 3C14.5279 3.00799 16.0175 4.64683 16.0175 6.83991Z" fill="#E275B7"/>
</svg>
