<svg width="18" height="18" viewBox="0 0 18 18" fill="none" xmlns="http://www.w3.org/2000/svg">
<path fill-rule="evenodd" clip-rule="evenodd" d="M12.4149 1.50001C11.3292 1.5 10.6293 1.62935 9.82699 2.02205C9.52995 2.16745 9.25128 2.34254 8.99248 2.54682C8.74364 2.354 8.47611 2.18694 8.19136 2.0461C7.37349 1.64158 6.63771 1.5 5.59091 1.5C2.78733 1.5 0.75 3.82295 0.75 6.83991C0.75 9.11831 2.02037 11.3192 4.38663 13.4474C5.62867 14.5645 7.21449 15.67 8.3502 16.2581L9 16.5946L9.6498 16.2581C10.7855 15.67 12.3713 14.5645 13.6134 13.4474C15.9796 11.3192 17.25 9.11831 17.25 6.83991C17.25 3.85488 15.1935 1.51152 12.4149 1.50001ZM15.75 6.83991C15.75 8.62492 14.6896 10.462 12.6103 12.3321C11.4766 13.3518 10.0192 14.3707 9 14.9053C7.98078 14.3707 6.52336 13.3518 5.38971 12.3321C3.31037 10.462 2.25 8.62492 2.25 6.83991C2.25 4.61079 3.66273 3 5.59091 3C6.42321 3 6.9361 3.09869 7.52635 3.39063C7.875 3.56308 8.18316 3.79078 8.4499 4.07533L9.00175 4.66403L9.54859 4.07066C9.82133 3.77471 10.134 3.54183 10.4864 3.36932C11.0594 3.08887 11.5403 3 12.4118 3.00001C14.3162 3.0079 15.75 4.64172 15.75 6.83991Z" fill="#E275B7"/>
</svg>
