<svg width="25" height="25" viewBox="0 0 25 25" fill="none" xmlns="http://www.w3.org/2000/svg">
<path fill-rule="evenodd" clip-rule="evenodd" d="M14.9263 17.0476C13.5972 17.9637 11.9862 18.5 10.25 18.5C5.69365 18.5 2 14.8063 2 10.25C2 5.69365 5.69365 2 10.25 2C14.8063 2 18.5 5.69365 18.5 10.25C18.5 11.9862 17.9637 13.5972 17.0476 14.9263L22.5607 20.4393L20.4393 22.5607L14.9263 17.0476ZM10.25 15.5C13.1495 15.5 15.5 13.1495 15.5 10.25C15.5 7.3505 13.1495 5 10.25 5C7.3505 5 5 7.3505 5 10.25C5 13.1495 7.3505 15.5 10.25 15.5Z" fill="#344966"/>
</svg>
